<svg xmlns="http://www.w3.org/2000/svg" xmlns:xlink="http://www.w3.org/1999/xlink" width="64" zoomAndPan="magnify" viewBox="0 0 48 48" height="64" preserveAspectRatio="xMidYMid meet" version="1.2"><defs><clipPath id="23a42e78be"><path d="M 2.269531 1.777344 L 45.730469 1.777344 L 45.730469 45.242188 L 2.269531 45.242188 Z M 2.269531 1.777344 "/></clipPath><clipPath id="9ef48ebdf2"><path d="M 24 1.777344 C 22.574219 1.777344 21.160156 1.917969 19.761719 2.195312 C 18.359375 2.476562 17.003906 2.886719 15.683594 3.433594 C 14.367188 3.980469 13.113281 4.648438 11.925781 5.441406 C 10.742188 6.234375 9.644531 7.136719 8.632812 8.144531 C 7.625 9.152344 6.722656 10.25 5.929688 11.4375 C 5.136719 12.625 4.46875 13.875 3.921875 15.195312 C 3.378906 16.511719 2.964844 17.871094 2.6875 19.269531 C 2.40625 20.671875 2.269531 22.082031 2.269531 23.511719 C 2.269531 24.9375 2.40625 26.351562 2.6875 27.75 C 2.964844 29.148438 3.378906 30.507812 3.921875 31.828125 C 4.46875 33.144531 5.136719 34.398438 5.929688 35.582031 C 6.722656 36.769531 7.625 37.867188 8.632812 38.875 C 9.644531 39.886719 10.742188 40.785156 11.925781 41.578125 C 13.113281 42.371094 14.367188 43.042969 15.683594 43.585938 C 17.003906 44.132812 18.359375 44.546875 19.761719 44.824219 C 21.160156 45.101562 22.574219 45.242188 24 45.242188 C 25.425781 45.242188 26.839844 45.101562 28.238281 44.824219 C 29.640625 44.546875 30.996094 44.132812 32.316406 43.585938 C 33.632812 43.042969 34.886719 42.371094 36.074219 41.578125 C 37.257812 40.785156 38.355469 39.886719 39.367188 38.875 C 40.375 37.867188 41.277344 36.769531 42.070312 35.582031 C 42.863281 34.398438 43.53125 33.144531 44.078125 31.828125 C 44.621094 30.507812 45.035156 29.148438 45.3125 27.75 C 45.59375 26.351562 45.730469 24.9375 45.730469 23.511719 C 45.730469 22.082031 45.59375 20.671875 45.3125 19.269531 C 45.035156 17.871094 44.621094 16.511719 44.078125 15.195312 C 43.53125 13.875 42.863281 12.625 42.070312 11.4375 C 41.277344 10.25 40.375 9.152344 39.367188 8.144531 C 38.355469 7.136719 37.257812 6.234375 36.074219 5.441406 C 34.886719 4.648438 33.632812 3.980469 32.316406 3.433594 C 30.996094 2.886719 29.640625 2.476562 28.238281 2.195312 C 26.839844 1.917969 25.425781 1.777344 24 1.777344 Z M 24 1.777344 "/></clipPath></defs><g id="347b55dd28"><g clip-rule="nonzero" clip-path="url(#23a42e78be)"><g clip-rule="nonzero" clip-path="url(#9ef48ebdf2)"><path style=" stroke:none;fill-rule:nonzero;fill:#c60c30;fill-opacity:1;" d="M 2.269531 1.777344 L 45.730469 1.777344 L 45.730469 45.242188 L 2.269531 45.242188 Z M 2.269531 1.777344 "/></g></g><g style="fill:#ffffff;fill-opacity:1;"><g transform="translate(22.769132, 31.239391)"><path style="stroke:none" d="M 16.484375 -15.921875 L 16.484375 0 L 13.453125 0 L 5.53125 -9.65625 L 5.53125 0 L 1.890625 0 L 1.890625 -15.921875 L 4.9375 -15.921875 L 12.84375 -6.25 L 12.84375 -15.921875 Z M 16.484375 -15.921875 "/></g></g><g style="fill:#ffffff;fill-opacity:1;"><g transform="translate(6.849062, 31.239391)"><path style="stroke:none" d="M 17.1875 -15.921875 L 10.296875 0 L 6.65625 0 L -0.203125 -15.921875 L 3.78125 -15.921875 L 8.609375 -4.546875 L 13.53125 -15.921875 Z M 17.1875 -15.921875 "/></g></g></g></svg>